<?xml version="1.0" encoding="UTF-8" standalone="no"?>
<!DOCTYPE svg PUBLIC "-//W3C//DTD SVG 1.1//EN" "http://www.w3.org/Graphics/SVG/1.1/DTD/svg11.dtd">
<svg width="100%" height="100%" viewBox="0 0 2259 500" version="1.1" xmlns="http://www.w3.org/2000/svg" xmlns:xlink="http://www.w3.org/1999/xlink" xml:space="preserve" xmlns:serif="http://www.serif.com/" style="fill-rule:evenodd;clip-rule:evenodd;stroke-linejoin:round;stroke-miterlimit:2;">
    <g transform="matrix(1,0,0,1,6279.05,-13987.1)">
        <g transform="matrix(1,0,0,1,-10567.9,12675.6)">
            <g transform="matrix(1,0,0,1,-1567.56,-1374.49)">
                <path d="M7962.92,3083.29L7893.31,2815.9L7977.95,2815.9L8004.13,2975.69L8030.31,2815.9L8114.95,2815.9L8045.34,3083.29L8045.34,3185.1L7962.92,3185.1L7962.92,3083.29ZM7623,2888.15L7623,3185.1L7542.31,3185.1L7542.31,2888.15L7498.51,2888.15L7515.7,2815.89L7648.83,2815.89L7666.76,2888.15L7623,2888.15ZM7136.75,3185.09L7186.42,2815.89L7294.5,2815.89L7344.63,3185.09L7266.5,3185.09L7263.91,3138.8L7216.01,3140.6L7214.42,3185.09L7136.75,3185.09ZM7361.07,3185.09L7361.07,2815.89L7441.76,2815.89L7441.76,3112.83L7515.69,3112.83L7498.53,3185.09L7361.07,3185.09ZM6862.72,3185.09L6862.72,3037.38L6831.61,3037.38L6831.61,3185.09L6750.93,3185.09L6750.93,2815.89L6831.61,2815.89L6831.61,2959.89L6862.72,2959.89L6862.72,2815.89L6943.41,2815.89L6943.41,3185.09L6862.72,3185.09ZM7795.75,3185.09L7795.75,3037.38L7764.64,3037.38L7764.64,3185.09L7683.93,3185.09L7683.93,2815.89L7764.64,2815.89L7764.64,2959.89L7795.75,2959.89L7795.75,2815.89L7876.44,2815.89L7876.44,3185.09L7795.75,3185.09ZM7046.57,3034.78L7046.57,3112.82L7122.69,3112.82L7110.91,3185.08L6965.88,3185.08L6965.88,2815.91L7110.91,2815.91L7125.09,2888.16L7046.57,2888.16L7046.57,2962.52L7110.91,2962.52L7110.91,3034.78L7046.57,3034.78ZM7240.69,2966.77L7225.5,3080.27L7255.85,3079.3L7240.69,2966.77Z" style="fill:white;fill-rule:nonzero;"/>
            </g>
            <g transform="matrix(1,0,0,1,-1567.56,-1374.48)">
                <path d="M6286.49,3185.09L6286.49,2815.88L6416.79,2815.88C6435.05,2815.88 6449.75,2820.63 6460.8,2830.13C6471.88,2839.63 6477.42,2854.38 6477.42,2874.41L6477.42,2944.57C6477.42,2970.6 6467.59,2988.16 6447.89,2997.32C6467.59,3006.12 6477.42,3023.53 6477.42,3049.55L6477.42,3126.53C6477.42,3146.58 6471.88,3161.34 6460.8,3170.84C6449.75,3180.34 6435.05,3185.09 6416.79,3185.09L6286.49,3185.09ZM6587.66,3034.78L6587.66,3112.82L6663.78,3112.82L6652,3185.08L6506.97,3185.08L6506.97,2815.91L6652,2815.91L6666.19,2888.16L6587.66,2888.16L6587.66,2962.52L6652,2962.52L6652,3034.78L6587.66,3034.78ZM6396.73,3096.48L6396.73,3049C6396.73,3036.34 6391.1,3030.01 6379.84,3030.01L6367.18,3030.01L6367.18,3115.48L6379.84,3115.48C6391.1,3115.48 6396.73,3109.15 6396.73,3096.48ZM6396.73,2941.41L6396.73,2904.49C6396.73,2891.83 6391.1,2885.49 6379.84,2885.49L6367.18,2885.49L6367.18,2960.4L6379.84,2960.4C6391.1,2960.4 6396.73,2954.07 6396.73,2941.41Z" style="fill:white;fill-rule:nonzero;"/>
            </g>
            <g transform="matrix(0.134134,0,0,0.134134,3041.05,449.431)">
                <path d="M9864.13,9375.91C10020.2,9358.82 10162.3,9304.54 10282.4,9201.93C10361.9,9134 10446.7,9075.19 10541.4,9031.46C10609.8,8999.84 10681,8979.59 10756.8,9004.36C10800.2,9018.55 10824.4,9005.28 10835.1,8960.84C10851.5,8893.33 10837.5,8831.91 10798.1,8776.01C10755.5,8715.72 10703.7,8713.35 10654.8,8768.54C10649.4,8774.66 10645.3,8781.95 10640.8,8788.85C10578.4,8886.01 10496.8,8955.93 10379.3,8976.76C10280.7,8994.28 10184.6,8983.6 10096.3,8938.52C10022.9,8900.98 9952.23,8886.05 9874.81,8919.7C9866.53,8923.27 9856.98,8924.9 9851.28,8913.11C9845.06,8900.31 9851.99,8894.89 9861.68,8888.8C9933.9,8843.16 9959.45,8787.08 9942.74,8703.51C9929.16,8635.65 9932.73,8568.03 9941.15,8500.56C9963.83,8319.01 10010.9,8143.03 10066.3,7969.12C10075.1,7941.74 10071.7,7937.42 10043.4,7942.27C9972.57,7954.3 9901.91,7967.25 9831.15,7979.56C9755.79,7992.69 9680.71,8008.05 9604.89,8017.96C9491.41,8032.78 9398.5,8077.5 9349.78,8186.83C9310.26,8275.46 9298.87,8369.22 9316.67,8464.93C9329.93,8536.15 9366.27,8593.83 9424.47,8638.87C9464.77,8670.04 9510.17,8686.7 9564.8,8700.29C9530.27,8726.41 9498.49,8729.06 9464.88,8715.79C9442.8,8707.05 9421.33,8696.15 9403.53,8680.48C9383.11,8662.54 9370.13,8668.52 9356.64,8688.47C9292.96,8782.94 9285.31,8882.05 9333.93,8984.37C9358.13,9035.29 9395.21,9079.02 9423.83,9127.14C9489.75,9237.85 9585.85,9305.85 9704.27,9346.93C9755.89,9364.87 9808.86,9381.96 9864.13,9375.91ZM11443.6,8685.71C11430.8,8667.53 11418.9,8663.64 11401.2,8678.49C11382.9,8693.81 11362,8705.28 11340.1,8714.48C11305.4,8729.09 11272.7,8726.34 11238.4,8699.94C11254.2,8695.87 11266.1,8693.46 11277.6,8689.82C11381.3,8656.84 11452.3,8590.92 11480.5,8484.04C11506,8386.77 11494.3,8290.67 11457.9,8199.08C11420.7,8105.77 11350.2,8047.78 11250,8028.18C11210.2,8020.4 11170,8015.37 11130.2,8007.55C11008.8,7983.74 10886.5,7964.56 10764.5,7943.83C10726.7,7937.39 10726.8,7937.95 10737.8,7974.22C10799.8,8178.27 10859.7,8382.84 10868.8,8598.04C10869,8603.91 10867.3,8611.09 10874.1,8614.52C10881.1,8617.99 10885.3,8612.19 10890.2,8608.65C10912.6,8592.31 10934.2,8574.55 10957.9,8560.21C10996.9,8536.72 11039.4,8521.72 11085.4,8518.85C11092.5,8518.43 11101.3,8517.76 11102.8,8527.2C11104.9,8539.2 11095,8539.91 11086.8,8540.68C11053.4,8543.76 11022.8,8554.8 10992.8,8569.31C10957,8586.57 10925.7,8610.14 10898.1,8637.56C10888.5,8647.04 10872.8,8642.23 10867.4,8658.08C10833.9,8756.83 10856.2,8826.68 10943.7,8890.4C10952.9,8897.08 10955.6,8902.89 10950.2,8913.43C10944.9,8923.9 10938.1,8926.38 10927.7,8921.78C10919.2,8918.02 10910.7,8914.49 10902.1,8911.06C10884.1,8903.88 10874.4,8904.3 10874.7,8929.39C10875,8960.63 10865,8990.28 10844.8,9015.4C10817.5,9049.16 10794.1,9055.28 10753.7,9039.74C10715.6,9025.13 10677,9022.41 10632.7,9037.3C10700.9,9082.81 10763.6,9127.88 10829.4,9167.8C10923.7,9224.9 10986.3,9218.53 11071.4,9147.98C11093.5,9129.61 11112.9,9108.07 11133.9,9088.29C11139.5,9083.01 11145.3,9073.6 11154.5,9081.39C11164,9089.56 11155,9096.43 11150.1,9102.05C11115.3,9141.82 11076.8,9177.23 11030.9,9204.12C10987.3,9229.67 10941.2,9237.35 10891.9,9223.91C10863,9216.05 10835.1,9206.22 10809.5,9190.15C10747.4,9151.41 10687.7,9109.31 10629.1,9065.71C10606.7,9049.08 10587.4,9045.09 10561.8,9057.58C10526.5,9074.84 10495.8,9099.22 10461.4,9117.55C10439.2,9129.4 10443.4,9137.19 10459.5,9152.43C10539.6,9228.19 10629.2,9289.43 10732.5,9327.71C10809.9,9356.34 10890.3,9382.56 10973.4,9375.27C11081.9,9365.75 11182.4,9326.9 11266.8,9256.14C11363.6,9175.04 11428.7,9068.93 11478.1,8955.25C11518.5,8862.23 11502.7,8769.74 11443.6,8685.71ZM10153.2,8775.69C10135,8745.62 10084.3,8721.74 10058,8730.93C10009.3,8747.95 9976.71,8780.99 9962.67,8831.81C9957.14,8851.94 9963.55,8859.93 9983.58,8862.02C10038.7,8867.65 10089.2,8888.1 10137.1,8914.59C10200.4,8949.48 10268,8952.14 10343.4,8945.56C10260.4,8904.02 10198.2,8849.64 10153.2,8775.69Z" style="fill:white;"/>
            </g>
            <g transform="matrix(0.180749,0,0,0.180749,3134.72,1335.84)">
                <path d="M7684.33,2068.28C7677.27,2067.97 7670.23,2069.83 7668.6,2078.37C7667.6,2083.59 7667.29,2089 7667.21,2094.33C7666.21,2169.53 7646.68,2241.66 7616.09,2308.46C7589.62,2366.22 7550.87,2418.63 7503.05,2462.85C7387.07,2570.13 7251.41,2613.32 7097.41,2575.96C6962.32,2543.16 6863.54,2458.17 6797.48,2336.05C6756.12,2259.59 6733.54,2177.64 6729.84,2090.63C6729.37,2079.91 6730.2,2066.47 6714.66,2067.84C6699.98,2069.15 6707.15,2082.67 6707.39,2090.1C6710.17,2188.1 6736.27,2279.55 6787.76,2363.12C6882.34,2516.67 7017.48,2601.9 7187.26,2606.55C7349.9,2604.84 7469.29,2541.1 7564.33,2428.29C7599.31,2386.78 7622.86,2338.73 7645.36,2289.26C7675.85,2222.25 7686.95,2152.57 7690.73,2080.57C7691,2075.5 7692.18,2068.62 7684.33,2068.28Z" style="fill:white;stroke:white;stroke-width:23.05px;"/>
            </g>
            <g transform="matrix(0.180749,0,0,0.180749,3134.72,1335.84)">
                <path d="M6769.25,664.406C6769.27,683.498 6769.69,702.477 6773.53,721.435C6790.99,807.506 6829.01,884.465 6876.43,957.381C6883.15,967.727 6892.37,977.994 6903.97,968.96C6914.66,960.585 6900.72,953.39 6896.36,947.06C6829.27,849.702 6789.29,744.881 6790.96,623.894C6794.04,403.623 6792.57,183.302 6793.04,-36.994C6793.07,-45.398 6793.64,-53.798 6794.17,-62.202C6794.98,-75.381 6801.73,-85.044 6812.78,-91.74C6853.67,-116.527 6887.17,-94.523 6895.86,-52.985C6897.57,-44.898 6896.57,-36.206 6896.57,-27.802C6896.49,137.431 6896.78,302.665 6895.81,467.873C6895.68,490.535 6902.87,497.44 6924.64,495.627C6947.46,493.76 6970.51,494.815 6993.46,494.577C7023.05,494.26 7023.26,494.26 7023.29,464.065C7023.37,299.594 7023.37,135.119 7023.37,-29.352C7023.37,-42.352 7023.07,-55.373 7027.54,-67.923C7040.06,-103.006 7081.52,-113.373 7109.8,-89.456C7126.37,-75.435 7129.1,-57.948 7129.07,-38.044C7128.87,130.235 7129.44,298.519 7128.5,466.823C7128.34,490.01 7136,495.469 7157.43,494.102C7185.61,492.269 7214.1,492.106 7242.3,493.944C7263.07,495.285 7269.94,489.981 7269.81,467.927C7268.94,301.927 7269.42,135.935 7269.5,-30.06C7269.5,-38.465 7269.08,-46.973 7270.07,-55.294C7273.28,-82.027 7294.78,-101.744 7320.88,-102.585C7346.77,-103.398 7369.8,-84.99 7374.68,-58.685C7376.18,-50.519 7375.97,-41.956 7375.97,-33.556C7376.05,121.727 7376.05,277.01 7376.07,432.294C7376.07,446.081 7376.81,459.894 7375.81,473.573C7374.66,489.615 7381.06,495.285 7396.94,494.76C7421.4,493.919 7445.97,493.685 7470.34,495.415C7490.24,496.86 7496.7,491.031 7496.57,470.131C7495.7,301.823 7495.99,133.544 7496.04,-34.735C7496.04,-43.898 7495.89,-53.273 7497.77,-62.123C7504.49,-93.235 7538.4,-109.727 7567.57,-97.019C7595.19,-84.965 7600.2,-61.385 7600.2,-34.919C7600.2,187.685 7599.47,410.294 7600.62,632.898C7601.1,721.96 7575.86,802.756 7533.48,879.79C7519.44,905.34 7502.61,928.76 7486.59,952.89C7483.49,957.619 7476.59,963.29 7483.33,968.669C7488.61,972.844 7496.75,971.715 7502.5,967.702C7506.67,964.785 7509.57,959.823 7512.66,955.49C7530.05,931.202 7544.72,905.29 7558.53,878.844C7599.81,799.815 7624.49,717.552 7623.6,626.623C7621.4,406.327 7623.05,186.006 7623.1,-34.315C7623.1,-41.931 7623.15,-49.652 7622.2,-57.21C7618,-92.056 7588.86,-118.731 7552.75,-121.227C7513.16,-123.981 7487.69,-106.994 7476.32,-70.681C7473.01,-60.177 7473.46,-49.519 7473.46,-38.86C7473.43,116.423 7473.43,271.706 7473.43,427.019C7473.43,471.944 7473.43,471.944 7429.3,472.994C7397.94,473.727 7397.42,473.415 7397.42,441.485C7397.34,283.89 7397.4,126.323 7397.31,-31.269C7397.31,-41.198 7397.5,-51.227 7396.19,-61.019C7391.74,-94.81 7363.6,-120.752 7329.75,-123.01C7281.92,-126.19 7250.02,-95.073 7249.91,-43.823C7249.59,113.748 7249.72,271.344 7249.67,428.906C7249.67,436.577 7249.1,444.269 7249.75,451.856C7251.22,468.66 7244.02,475.277 7227.15,474.727C7207.32,474.069 7187.37,474.623 7167.54,475.827C7152.23,476.773 7146.59,470.34 7147.8,455.719C7148.37,448.89 7147.85,441.956 7147.85,435.077C7147.87,273.677 7148,112.277 7147.8,-49.127C7147.74,-97.856 7108.7,-130.048 7060.65,-121.831C7022.81,-115.398 7000.99,-85.702 7000.94,-38.965C7000.73,112.51 7001.31,263.965 7000.65,415.41C7000.34,484.39 7012.81,470.944 6940.42,473.098C6924.61,473.573 6917.71,467.769 6919.02,451.856C6919.65,444.269 6919.1,436.577 6919.1,428.935C6919.07,270.577 6919.17,112.248 6918.94,-46.106C6918.89,-80.581 6898.25,-107.835 6866.11,-117.76C6831.08,-128.606 6802.65,-120.069 6783.06,-92.552C6771.9,-76.852 6769.88,-58.84 6769.91,-40.119C6770.06,80.74 6769.99,201.602 6769.99,322.465L6769.22,322.465C6769.22,436.444 6769.17,550.427 6769.25,664.406Z" style="fill:white;stroke:white;stroke-width:23.05px;"/>
            </g>
        </g>
    </g>
</svg>
