<svg xmlns="http://www.w3.org/2000/svg" viewBox="0 0 200 200"><defs><style>.cls-1{fill:#5aa545;}.cls-2{fill:#fff;}</style></defs><g id="Layer_2" data-name="Layer 2"><g id="Layer_1-2" data-name="Layer 1"><path class="cls-1" d="M100,200h0A100,100,0,1,1,200,100,100,100,0,0,1,100,200"/><path class="cls-2" d="M132.92,83.25a2.23,2.23,0,0,1,1.44,1.91,1.79,1.79,0,0,1,0,.48,1.86,1.86,0,0,1-1.92,1.54,3.62,3.62,0,0,1-.72-.1,19.25,19.25,0,0,0-3.12-.33A9,9,0,0,0,123,88.33a5,5,0,0,0-2.11,4.27v14a2.45,2.45,0,0,1-.6,1.77,2.37,2.37,0,0,1-1.8.62,2.43,2.43,0,0,1-1.77-.59,2.37,2.37,0,0,1-.62-1.8V85.16a2.39,2.39,0,0,1,.62-1.77,2.36,2.36,0,0,1,1.77-.62,2.12,2.12,0,0,1,2.4,2.39v.91a10.2,10.2,0,0,1,3.55-2.63,10.73,10.73,0,0,1,4.5-1,8.4,8.4,0,0,1,4,.77"/><path class="cls-2" d="M159.53,97a2.17,2.17,0,0,1-1.58.6H139.73a8.46,8.46,0,0,0,3,5.42,9.37,9.37,0,0,0,6.16,2.06,10.23,10.23,0,0,0,5.57-1.82,2.47,2.47,0,0,1,1.58-.53,2.07,2.07,0,0,1,1.44.48,2.12,2.12,0,0,1,.86,1.63,1.73,1.73,0,0,1-.77,1.44,13.1,13.1,0,0,1-4.05,2.11,14.6,14.6,0,0,1-4.63.82,14.36,14.36,0,0,1-7-1.71,12.35,12.35,0,0,1-4.87-4.72,13.39,13.39,0,0,1-1.75-6.86A14.22,14.22,0,0,1,136.92,89a12,12,0,0,1,4.61-4.74,13,13,0,0,1,6.68-1.71,12.1,12.1,0,0,1,6.38,1.63,10.8,10.8,0,0,1,4.13,4.56,15.15,15.15,0,0,1,1.43,6.71,2,2,0,0,1-.62,1.51m-17-8.36a8.61,8.61,0,0,0-2.75,5.13h16a8.52,8.52,0,0,0-2.39-5.13,7.07,7.07,0,0,0-5.14-1.92,8.3,8.3,0,0,0-5.68,1.92"/><path class="cls-2" d="M74.15,85.26q2.56,2.73,2.57,7.62V106.6a2.46,2.46,0,0,1-.67,1.75,2.37,2.37,0,0,1-1.78.69,2.36,2.36,0,0,1-2.44-2.44V92.88a6.09,6.09,0,0,0-1.47-4.43,5.15,5.15,0,0,0-3.9-1.51,5.34,5.34,0,0,0-4.1,1.72,6.25,6.25,0,0,0-1.61,4.42V106.6a2.42,2.42,0,0,1-.67,1.75,2.46,2.46,0,0,1-4.22-1.75V92.88a6.13,6.13,0,0,0-1.46-4.43,5.19,5.19,0,0,0-3.91-1.51,5.42,5.42,0,0,0-4.15,1.72,6.24,6.24,0,0,0-1.6,4.42V106.6a2.43,2.43,0,0,1-.68,1.75,2.33,2.33,0,0,1-1.77.69,2.36,2.36,0,0,1-2.44-2.44V85.26a2.33,2.33,0,0,1,.69-1.77,2.61,2.61,0,0,1,3.48,0,2.48,2.48,0,0,1,.72,1.7,8.89,8.89,0,0,1,3-1.94,10,10,0,0,1,3.74-.69,9.54,9.54,0,0,1,4.39,1A8.59,8.59,0,0,1,59,86.31a10,10,0,0,1,3.59-2.78,11.24,11.24,0,0,1,4.8-1,8.8,8.8,0,0,1,6.73,2.73"/><path class="cls-2" d="M52.41,125a6.77,6.77,0,0,1,2.73,2.78,9.18,9.18,0,0,1,1,4.39V140a1.54,1.54,0,0,1-.46,1.15,1.56,1.56,0,0,1-1.16.46A1.59,1.59,0,0,1,52.88,140v-7.81a4.66,4.66,0,0,0-5-5.2,5.42,5.42,0,0,0-2.43.54A4.23,4.23,0,0,0,43.7,129a3.62,3.62,0,0,0-.62,2.06V140a1.6,1.6,0,0,1-.44,1.15,1.56,1.56,0,0,1-1.18.46A1.57,1.57,0,0,1,39.85,140V118.42a1.54,1.54,0,0,1,.46-1.17,1.57,1.57,0,0,1,1.15-.45,1.53,1.53,0,0,1,1.62,1.62v7.77a7,7,0,0,1,2.41-1.56,8.45,8.45,0,0,1,6.92.39"/><path class="cls-2" d="M76.68,133.63a1.43,1.43,0,0,1-1.05.4h-12a5.59,5.59,0,0,0,2,3.59,6.45,6.45,0,0,0,6.06,1,5.87,5.87,0,0,0,1.7-.86,1.63,1.63,0,0,1,1.05-.34,1.38,1.38,0,0,1,.95.31,1.4,1.4,0,0,1,.57,1.08,1.14,1.14,0,0,1-.51,1,8.58,8.58,0,0,1-2.68,1.4,9.68,9.68,0,0,1-7.73-.59,8.26,8.26,0,0,1-3.22-3.12,8.91,8.91,0,0,1-1.15-4.54,9.36,9.36,0,0,1,1.09-4.55,7.94,7.94,0,0,1,3-3.14,8.68,8.68,0,0,1,4.42-1.13,8,8,0,0,1,4.22,1.08,7,7,0,0,1,2.73,3,9.9,9.9,0,0,1,1,4.45,1.32,1.32,0,0,1-.41,1M65.43,128.1a5.7,5.7,0,0,0-1.82,3.39H74.17a5.62,5.62,0,0,0-1.58-3.39,4.65,4.65,0,0,0-3.4-1.27,5.47,5.47,0,0,0-3.76,1.27"/><path class="cls-2" d="M92.88,125.26A8.53,8.53,0,0,1,96,128.43a8.89,8.89,0,0,1,1.16,4.49V140a1.63,1.63,0,0,1-2.78,1.15,1.54,1.54,0,0,1-.46-1.15v-1.18a8,8,0,0,1-10.26,1.75,8,8,0,0,1-2.92-3.16,9.45,9.45,0,0,1-1.07-4.49,9,9,0,0,1,1.15-4.49A8.34,8.34,0,0,1,84,125.26a8.83,8.83,0,0,1,4.46-1.16,8.67,8.67,0,0,1,4.43,1.16m-1.56,12.82a5.52,5.52,0,0,0,2-2.13,6.34,6.34,0,0,0,.73-3,6.48,6.48,0,0,0-.73-3,5.55,5.55,0,0,0-2-2.14,5.73,5.73,0,0,0-5.74,0,5.65,5.65,0,0,0-2,2.14,6.26,6.26,0,0,0-.75,3,6.13,6.13,0,0,0,.75,3,5.62,5.62,0,0,0,2,2.13,5.73,5.73,0,0,0,5.74,0"/><path class="cls-2" d="M103.66,140.84a4.86,4.86,0,0,1-1.69-2.1,7.19,7.19,0,0,1-.61-3V118.39a1.53,1.53,0,0,1,.45-1.14,1.67,1.67,0,0,1,2.28,0,1.53,1.53,0,0,1,.45,1.14v17.32a3.77,3.77,0,0,0,.44,1.94,1.31,1.31,0,0,0,1.14.76h.8a1.34,1.34,0,0,1,1,.44,1.69,1.69,0,0,1,.39,1.15,1.37,1.37,0,0,1-.6,1.14,2.52,2.52,0,0,1-1.55.44h-.07a4.32,4.32,0,0,1-2.46-.74"/><path class="cls-2" d="M119.88,138.85a1.69,1.69,0,0,1,.39,1.15,1.43,1.43,0,0,1-.52,1.14,2,2,0,0,1-1.35.44h-.57a5.22,5.22,0,0,1-2.84-.81,5.55,5.55,0,0,1-2-2.2,6.64,6.64,0,0,1-.73-3.14v-7.84h-1.46a1.53,1.53,0,0,1-1.08-.38,1.21,1.21,0,0,1-.41-.95,1.32,1.32,0,0,1,.41-1,1.53,1.53,0,0,1,1.08-.38h1.46v-4.57a1.54,1.54,0,0,1,.44-1.14,1.59,1.59,0,0,1,2.73,1.14v4.57h2.7a1.52,1.52,0,0,1,1.07.38,1.33,1.33,0,0,1,.42,1,1.22,1.22,0,0,1-.42.95,1.52,1.52,0,0,1-1.07.38h-2.7v7.84a3.22,3.22,0,0,0,.7,2.12,2.12,2.12,0,0,0,1.71.86h1.08a1.28,1.28,0,0,1,1,.44"/><path class="cls-2" d="M136.8,125a6.65,6.65,0,0,1,2.73,2.78,9.07,9.07,0,0,1,1,4.39V140a1.57,1.57,0,0,1-1.62,1.61,1.56,1.56,0,0,1-1.16-.46,1.54,1.54,0,0,1-.46-1.15v-7.81a4.68,4.68,0,0,0-5.05-5.2,5.41,5.41,0,0,0-2.42.54,4.33,4.33,0,0,0-1.72,1.46,3.61,3.61,0,0,0-.61,2.06V140a1.57,1.57,0,0,1-.45,1.15,1.63,1.63,0,0,1-2.79-1.15V118.42a1.54,1.54,0,0,1,.46-1.17,1.73,1.73,0,0,1,2.33,0,1.57,1.57,0,0,1,.45,1.17v7.77a6.92,6.92,0,0,1,2.41-1.56,8,8,0,0,1,3-.56,8.1,8.1,0,0,1,3.93,1"/><path class="cls-2" d="M160.15,125.62a1.88,1.88,0,0,1-.19.76l-9.71,21.83a1.29,1.29,0,0,1-1.23,1,2.11,2.11,0,0,1-.76-.19,1.33,1.33,0,0,1-.95-1.24,1.64,1.64,0,0,1,.19-.76l3.17-7.14-7.14-13.55a1.29,1.29,0,0,1-.16-.66,1.36,1.36,0,0,1,.25-.77,1.67,1.67,0,0,1,.67-.53,1.47,1.47,0,0,1,.64-.13,1.42,1.42,0,0,1,1.33.89l5.8,11.54,5.11-11.51a1.32,1.32,0,0,1,1.24-.92,1.76,1.76,0,0,1,.76.16,1.28,1.28,0,0,1,1,1.23"/><path class="cls-2" d="M94.41,53.39a10.2,10.2,0,0,1,3.69,4A12,12,0,0,1,99.44,63,11.17,11.17,0,0,1,98,68.7a10.5,10.5,0,0,1-4,4,11.12,11.12,0,0,1-5.63,1.46,10.91,10.91,0,0,1-5.58-1.46,10.73,10.73,0,0,1-4-4A11.08,11.08,0,0,1,77.38,63V44.78A2,2,0,0,1,78,43.3a2,2,0,0,1,3.5,1.48V55.59a9.76,9.76,0,0,1,3.4-2.68,9.91,9.91,0,0,1,4.33-1,9.76,9.76,0,0,1,5.22,1.44M92,69.58a7,7,0,0,0,2.56-2.7,8.29,8.29,0,0,0,0-7.67A7.17,7.17,0,0,0,92,56.53a7,7,0,0,0-9.79,2.68,8.45,8.45,0,0,0,0,7.67A7,7,0,0,0,92,69.58"/><path class="cls-2" d="M122.1,64a1.82,1.82,0,0,1-1.32.5H105.57A7,7,0,0,0,108.11,69a8.12,8.12,0,0,0,7.65,1.29,7.64,7.64,0,0,0,2.14-1.09,2.08,2.08,0,0,1,1.32-.44,1.74,1.74,0,0,1,1.2.4,1.76,1.76,0,0,1,.72,1.37,1.44,1.44,0,0,1-.64,1.2,11,11,0,0,1-3.38,1.76,12.24,12.24,0,0,1-3.87.68,12,12,0,0,1-5.88-1.42,10.22,10.22,0,0,1-4.06-4,11.15,11.15,0,0,1-1.47-5.72,11.87,11.87,0,0,1,1.39-5.75,10,10,0,0,1,3.84-4A10.92,10.92,0,0,1,112.65,52,10.06,10.06,0,0,1,118,53.31a9,9,0,0,1,3.44,3.8,12.58,12.58,0,0,1,1.2,5.61A1.65,1.65,0,0,1,122.1,64m-14.19-7a7.17,7.17,0,0,0-2.3,4.29h13.33a7.14,7.14,0,0,0-2-4.29,5.91,5.91,0,0,0-4.29-1.6,7,7,0,0,0-4.74,1.6"/><path class="cls-2" d="M59.65,155.2a.35.35,0,0,1-.1-.26v-4.79a.34.34,0,0,1,.1-.26.39.39,0,0,1,.27-.11h1.69a1.92,1.92,0,0,1,.84.19,1.48,1.48,0,0,1,.58.53,1.46,1.46,0,0,1,.2.76,1.12,1.12,0,0,1-.18.62,1.41,1.41,0,0,1-.52.44,1.35,1.35,0,0,1,.76.46,1.33,1.33,0,0,1,.28.86,1.65,1.65,0,0,1-.23.86,1.57,1.57,0,0,1-.65.6,2,2,0,0,1-.94.21H59.92a.39.39,0,0,1-.27-.11m2-3.14a1,1,0,0,0,.67-.21.74.74,0,0,0,.25-.59.73.73,0,0,0-.25-.59,1,1,0,0,0-.67-.21H60.28v1.6Zm.14,2.57a1.2,1.2,0,0,0,.8-.26.88.88,0,0,0,.31-.73.79.79,0,0,0-.3-.67,1.26,1.26,0,0,0-.81-.24H60.28v1.9Z"/><path class="cls-2" d="M67.44,153.54a.32.32,0,0,1-.23.09H64.52a1.25,1.25,0,0,0,.45.8,1.43,1.43,0,0,0,1.35.22,1.23,1.23,0,0,0,.38-.19.36.36,0,0,1,.23-.08.33.33,0,0,1,.21.07.3.3,0,0,1,.13.24.28.28,0,0,1-.11.22,2.27,2.27,0,0,1-1.28.43,2.22,2.22,0,0,1-1-.25,1.8,1.8,0,0,1-.72-.7,2,2,0,0,1-.26-1,2,2,0,0,1,.25-1,1.76,1.76,0,0,1,.68-.7,2,2,0,0,1,1-.25,1.75,1.75,0,0,1,.94.24,1.58,1.58,0,0,1,.61.67,2.25,2.25,0,0,1,.21,1,.32.32,0,0,1-.09.23m-2.51-1.24a1.25,1.25,0,0,0-.4.76h2.35a1.26,1.26,0,0,0-.35-.76,1,1,0,0,0-.76-.28,1.24,1.24,0,0,0-.84.28"/><path class="cls-2" d="M71.33,154.7a.37.37,0,0,1,.09.26.32.32,0,0,1-.12.25.44.44,0,0,1-.3.1h-.13a1.16,1.16,0,0,1-.63-.18,1.25,1.25,0,0,1-.45-.49,1.47,1.47,0,0,1-.16-.7v-1.75H69.3a.36.36,0,0,1-.24-.08.29.29,0,0,1-.09-.22.28.28,0,0,1,.09-.22.32.32,0,0,1,.24-.09h.33v-1a.33.33,0,0,1,.1-.25.32.32,0,0,1,.25-.1.35.35,0,0,1,.26.1.37.37,0,0,1,.09.25v1h.61a.34.34,0,0,1,.24.09.28.28,0,0,1,.09.22.29.29,0,0,1-.09.22.38.38,0,0,1-.24.08h-.61v1.75a.74.74,0,0,0,.16.47.46.46,0,0,0,.38.19h.24a.3.3,0,0,1,.22.1"/><path class="cls-2" d="M74.57,151.62a1.46,1.46,0,0,1,.61.62,2,2,0,0,1,.22,1V155a.32.32,0,0,1-.1.25.36.36,0,0,1-.52,0,.32.32,0,0,1-.1-.25v-1.74a1,1,0,0,0-1.13-1.16,1.22,1.22,0,0,0-.54.12.92.92,0,0,0-.38.32.83.83,0,0,0-.14.46v2a.32.32,0,0,1-.1.25.33.33,0,0,1-.26.11.36.36,0,0,1-.26-.11.32.32,0,0,1-.1-.25v-4.81a.36.36,0,0,1,.1-.27.4.4,0,0,1,.26-.1.34.34,0,0,1,.36.37v1.73a1.53,1.53,0,0,1,.54-.35,1.84,1.84,0,0,1,.66-.12,1.82,1.82,0,0,1,.88.21"/><path class="cls-2" d="M79.45,153.54a.32.32,0,0,1-.23.09H76.53a1.25,1.25,0,0,0,.45.8,1.43,1.43,0,0,0,1.35.22,1.23,1.23,0,0,0,.38-.19.38.38,0,0,1,.23-.08.38.38,0,0,1,.22.07.31.31,0,0,1,.12.24.28.28,0,0,1-.11.22,2.27,2.27,0,0,1-1.28.43,2.22,2.22,0,0,1-1-.25,1.8,1.8,0,0,1-.72-.7,2,2,0,0,1-.26-1,2.14,2.14,0,0,1,.25-1,1.76,1.76,0,0,1,.68-.7,2,2,0,0,1,1-.25,1.75,1.75,0,0,1,.94.24,1.58,1.58,0,0,1,.61.67,2.25,2.25,0,0,1,.21,1,.32.32,0,0,1-.09.23m-2.51-1.24a1.25,1.25,0,0,0-.4.76h2.35a1.26,1.26,0,0,0-.35-.76,1,1,0,0,0-.76-.28,1.24,1.24,0,0,0-.84.28"/><path class="cls-2" d="M84.48,151.67a1.78,1.78,0,0,1,.66.7,2.2,2.2,0,0,1,.23,1,2,2,0,0,1-.25,1,1.86,1.86,0,0,1-.71.71,2,2,0,0,1-1,.26,1.92,1.92,0,0,1-1.94-2v-3.22a.36.36,0,0,1,.1-.27.37.37,0,0,1,.26-.09.39.39,0,0,1,.26.09.41.41,0,0,1,.1.27v1.91a1.66,1.66,0,0,1,.6-.48,1.76,1.76,0,0,1,.76-.17,1.7,1.7,0,0,1,.92.26m-.42,2.86a1.3,1.3,0,0,0,.45-.48,1.4,1.4,0,0,0,.17-.68,1.36,1.36,0,0,0-.17-.67,1.3,1.3,0,0,0-.45-.48,1.29,1.29,0,0,0-1.28,0,1.3,1.3,0,0,0-.45.48,1.35,1.35,0,0,0-.16.67,1.39,1.39,0,0,0,.16.68,1.3,1.3,0,0,0,.45.48,1.29,1.29,0,0,0,1.28,0"/><path class="cls-2" d="M89.3,153.54a.32.32,0,0,1-.23.09H86.38a1.25,1.25,0,0,0,.45.8,1.39,1.39,0,0,0,.91.3,1.47,1.47,0,0,0,.44-.08,1.23,1.23,0,0,0,.38-.19.36.36,0,0,1,.23-.08.33.33,0,0,1,.21.07.3.3,0,0,1,.13.24.28.28,0,0,1-.11.22,2.25,2.25,0,0,1-.6.31,2.16,2.16,0,0,1-1.72-.13,1.8,1.8,0,0,1-.72-.7,2,2,0,0,1-.26-1,2.13,2.13,0,0,1,.24-1,1.83,1.83,0,0,1,.68-.7,2,2,0,0,1,1-.25,1.78,1.78,0,0,1,.94.24,1.65,1.65,0,0,1,.61.67,2.25,2.25,0,0,1,.21,1,.32.32,0,0,1-.09.23m-2.51-1.24a1.32,1.32,0,0,0-.41.76h2.36a1.26,1.26,0,0,0-.35-.76,1.05,1.05,0,0,0-.76-.28,1.24,1.24,0,0,0-.84.28"/><path class="cls-2" d="M90.28,155.19a1.75,1.75,0,0,1-.66-.39.29.29,0,0,1-.09-.22.31.31,0,0,1,.14-.27.4.4,0,0,1,.24-.1.37.37,0,0,1,.27.12,1.07,1.07,0,0,0,.41.26,1.38,1.38,0,0,0,.57.11,1.23,1.23,0,0,0,.63-.13.42.42,0,0,0,.22-.36.45.45,0,0,0-.22-.37,2.05,2.05,0,0,0-.74-.24c-.91-.18-1.36-.55-1.36-1.12a.92.92,0,0,1,.2-.59,1.29,1.29,0,0,1,.54-.36,2.08,2.08,0,0,1,.71-.12,2.14,2.14,0,0,1,.82.15,1.48,1.48,0,0,1,.58.41.37.37,0,0,1,.09.23.29.29,0,0,1-.12.22.39.39,0,0,1-.2.05.48.48,0,0,1-.33-.13,1,1,0,0,0-.38-.23,1.35,1.35,0,0,0-.48-.07,1.19,1.19,0,0,0-.53.11.34.34,0,0,0-.21.31.4.4,0,0,0,.07.24.66.66,0,0,0,.27.17,2.73,2.73,0,0,0,.57.16,2.63,2.63,0,0,1,1.1.43.93.93,0,0,1,.32.72,1,1,0,0,1-.18.59,1.23,1.23,0,0,1-.52.42,2,2,0,0,1-.82.15,2.76,2.76,0,0,1-.91-.15"/><path class="cls-2" d="M95,154.7A.37.37,0,0,1,95,155a.34.34,0,0,1-.11.25.44.44,0,0,1-.3.1H94.5a1.21,1.21,0,0,1-.64-.18,1.16,1.16,0,0,1-.44-.49,1.48,1.48,0,0,1-.17-.7v-1.75h-.32a.36.36,0,0,1-.24-.08.3.3,0,0,1-.1-.22.29.29,0,0,1,.1-.22.32.32,0,0,1,.24-.09h.32v-1a.37.37,0,0,1,.1-.25.34.34,0,0,1,.26-.1.34.34,0,0,1,.35.35v1h.6a.32.32,0,0,1,.24.09.28.28,0,0,1,.09.22.29.29,0,0,1-.09.22.36.36,0,0,1-.24.08H94v1.75a.69.69,0,0,0,.16.47.46.46,0,0,0,.38.19h.24a.3.3,0,0,1,.21.1"/><path class="cls-2" d="M100.06,151.61a.3.3,0,0,1,0,.16.37.37,0,0,1,0,.14l-1.5,3.16a.35.35,0,0,1-.32.23.31.31,0,0,1-.2-.05.54.54,0,0,1-.14-.18l-1.5-3.16a.28.28,0,0,1,0-.13.3.3,0,0,1,.2-.29.29.29,0,0,1,.31,0,.3.3,0,0,1,.12.13l1.23,2.65,1.22-2.65a.25.25,0,0,1,.12-.13.34.34,0,0,1,.17-.05.47.47,0,0,1,.17,0,.41.41,0,0,1,.14.12"/><path class="cls-2" d="M103.52,153.54a.32.32,0,0,1-.23.09H100.6a1.25,1.25,0,0,0,.45.8,1.43,1.43,0,0,0,1.35.22,1.13,1.13,0,0,0,.38-.19.38.38,0,0,1,.23-.08.38.38,0,0,1,.22.07.31.31,0,0,1,.12.24.25.25,0,0,1-.11.22,2.27,2.27,0,0,1-1.28.43,2.22,2.22,0,0,1-1-.25,1.8,1.8,0,0,1-.72-.7,2,2,0,0,1-.26-1,2.14,2.14,0,0,1,.25-1,1.76,1.76,0,0,1,.68-.7,2,2,0,0,1,1-.25,1.75,1.75,0,0,1,.94.24,1.58,1.58,0,0,1,.61.67,2.25,2.25,0,0,1,.22,1,.33.33,0,0,1-.1.23M101,152.3a1.26,1.26,0,0,0-.41.76H103a1.26,1.26,0,0,0-.35-.76,1,1,0,0,0-.76-.28,1.19,1.19,0,0,0-.83.28"/><path class="cls-2" d="M106.49,151.51c.14.08.21.17.21.28s0,.06,0,.07a.26.26,0,0,1-.28.23h-.11a2.19,2.19,0,0,0-.46-.05,1.37,1.37,0,0,0-.82.23.78.78,0,0,0-.31.63V155a.36.36,0,0,1-.09.26.42.42,0,0,1-.52,0,.33.33,0,0,1-.1-.26v-3.17a.33.33,0,0,1,.1-.26.34.34,0,0,1,.26-.09.31.31,0,0,1,.35.35v.14a1.43,1.43,0,0,1,.52-.39,1.52,1.52,0,0,1,.67-.14,1.35,1.35,0,0,1,.59.11"/><path class="cls-2" d="M107.41,155.19a1.75,1.75,0,0,1-.66-.39.29.29,0,0,1-.09-.22.31.31,0,0,1,.14-.27.4.4,0,0,1,.25-.1.37.37,0,0,1,.26.12,1.07,1.07,0,0,0,.41.26,1.38,1.38,0,0,0,.57.11,1.23,1.23,0,0,0,.63-.13.42.42,0,0,0,.22-.36.43.43,0,0,0-.22-.37,2,2,0,0,0-.74-.24c-.91-.18-1.36-.55-1.36-1.12a.92.92,0,0,1,.2-.59,1.29,1.29,0,0,1,.54-.36,2.08,2.08,0,0,1,.71-.12,2.1,2.1,0,0,1,.82.15,1.41,1.41,0,0,1,.58.41.37.37,0,0,1,.09.23.29.29,0,0,1-.12.22.39.39,0,0,1-.2.05.48.48,0,0,1-.33-.13,1,1,0,0,0-.37-.23,1.43,1.43,0,0,0-.48-.07,1.2,1.2,0,0,0-.54.11.34.34,0,0,0-.21.31.48.48,0,0,0,.07.24.66.66,0,0,0,.27.17,2.85,2.85,0,0,0,.58.16,2.64,2.64,0,0,1,1.09.43.93.93,0,0,1,.32.72,1,1,0,0,1-.18.59,1.17,1.17,0,0,1-.52.42,2,2,0,0,1-.82.15,2.76,2.76,0,0,1-.91-.15"/><path class="cls-2" d="M110.32,150.67a.44.44,0,0,1-.13-.33.44.44,0,0,1,.13-.32.45.45,0,0,1,.33-.14.42.42,0,0,1,.33.14.45.45,0,0,1,.14.32.48.48,0,0,1-.47.47.49.49,0,0,1-.33-.14m.08,4.54a.36.36,0,0,1-.11-.26V151.8a.35.35,0,0,1,.11-.26.32.32,0,0,1,.25-.1.33.33,0,0,1,.26.1.34.34,0,0,1,.1.26V155a.35.35,0,0,1-.1.26.36.36,0,0,1-.26.1.36.36,0,0,1-.25-.1"/><path class="cls-2" d="M112.57,155.09a1.72,1.72,0,0,1-.69-.7,2,2,0,0,1-.25-1,2,2,0,0,1,.25-1,1.72,1.72,0,0,1,.69-.7,2.1,2.1,0,0,1,1-.25,2.06,2.06,0,0,1,1,.25,1.81,1.81,0,0,1,.7.7,2.14,2.14,0,0,1,.25,1,2.1,2.1,0,0,1-.25,1,1.86,1.86,0,0,1-.69.7,2.07,2.07,0,0,1-1,.25,2.1,2.1,0,0,1-1-.25m1.66-.56a1.11,1.11,0,0,0,.44-.47,1.55,1.55,0,0,0,0-1.37,1.11,1.11,0,0,0-.44-.47,1.19,1.19,0,0,0-.65-.17,1.22,1.22,0,0,0-.65.17,1.11,1.11,0,0,0-.44.47,1.47,1.47,0,0,0,0,1.37,1.11,1.11,0,0,0,.44.47,1.31,1.31,0,0,0,.65.17,1.29,1.29,0,0,0,.65-.17"/><path class="cls-2" d="M118.87,151.62a1.46,1.46,0,0,1,.61.62,2,2,0,0,1,.22,1V155a.32.32,0,0,1-.1.25.36.36,0,0,1-.52,0,.32.32,0,0,1-.1-.25v-1.74a1,1,0,0,0-1.13-1.16,1.25,1.25,0,0,0-.54.12.92.92,0,0,0-.38.32.83.83,0,0,0-.14.46v2a.32.32,0,0,1-.1.25.33.33,0,0,1-.26.11.36.36,0,0,1-.26-.11.36.36,0,0,1-.1-.25V151.8a.36.36,0,0,1,.1-.26.35.35,0,0,1,.26-.1.34.34,0,0,1,.36.36v.08a1.53,1.53,0,0,1,.54-.35,1.85,1.85,0,0,1,.67-.12,1.81,1.81,0,0,1,.87.21"/><path class="cls-2" d="M122.65,155.09a1.72,1.72,0,0,1-.69-.7,2,2,0,0,1-.25-1,2,2,0,0,1,.25-1,1.72,1.72,0,0,1,.69-.7,2.1,2.1,0,0,1,1-.25,2.06,2.06,0,0,1,1,.25,1.72,1.72,0,0,1,.69.7,2,2,0,0,1,.26,1,2.1,2.1,0,0,1-.25,1,1.86,1.86,0,0,1-.69.7,2.17,2.17,0,0,1-2,0m1.66-.56a1.11,1.11,0,0,0,.44-.47,1.55,1.55,0,0,0,0-1.37,1.11,1.11,0,0,0-.44-.47,1.33,1.33,0,0,0-1.3,0,1.11,1.11,0,0,0-.44.47,1.47,1.47,0,0,0,0,1.37,1.11,1.11,0,0,0,.44.47,1.33,1.33,0,0,0,1.3,0"/><path class="cls-2" d="M127.18,150.7a1,1,0,0,0-.24.69v.19h.72a.37.37,0,0,1,.25.09.28.28,0,0,1,.09.22.29.29,0,0,1-.09.22.41.41,0,0,1-.25.08h-.72V155a.34.34,0,0,1-.1.26.39.39,0,0,1-.52,0,.38.38,0,0,1-.1-.26v-2.76h-.3a.36.36,0,0,1-.24-.08.29.29,0,0,1-.09-.22.28.28,0,0,1,.09-.22.32.32,0,0,1,.24-.09h.3v-.12a1.9,1.9,0,0,1,.2-.88A1.54,1.54,0,0,1,127,150a1.63,1.63,0,0,1,.83-.21.4.4,0,0,1,.26.1.29.29,0,0,1,.1.23.28.28,0,0,1-.1.23.35.35,0,0,1-.26.1.82.82,0,0,0-.64.26"/><path class="cls-2" d="M133.74,149.88a.36.36,0,0,1,.09.24.46.46,0,0,1-.08.24l-1.9,2.93v1.65a.34.34,0,0,1-.1.26.37.37,0,0,1-.27.11.36.36,0,0,1-.25-.11.35.35,0,0,1-.11-.26v-1.65l-1.88-2.93a.38.38,0,0,1-.08-.23.31.31,0,0,1,.11-.25.4.4,0,0,1,.26-.1.35.35,0,0,1,.18.05.76.76,0,0,1,.14.16l1.66,2.62,1.68-2.65a.36.36,0,0,1,.32-.18.33.33,0,0,1,.23.1"/><path class="cls-2" d="M134,155.09a1.79,1.79,0,0,1-.69-.7,2,2,0,0,1-.25-1,2,2,0,0,1,.25-1,1.79,1.79,0,0,1,.69-.7,2.13,2.13,0,0,1,1-.25,2,2,0,0,1,1,.25,1.81,1.81,0,0,1,.7.7,2,2,0,0,1,.25,1,2,2,0,0,1-.25,1,1.72,1.72,0,0,1-.69.7,2.07,2.07,0,0,1-1,.25,2.13,2.13,0,0,1-1-.25m1.66-.56a1.2,1.2,0,0,0,.45-.47,1.55,1.55,0,0,0,0-1.37,1.21,1.21,0,0,0-1.1-.64,1.16,1.16,0,0,0-.64.17,1.2,1.2,0,0,0-.45.47,1.47,1.47,0,0,0,0,1.37,1.2,1.2,0,0,0,.45.47,1.25,1.25,0,0,0,.64.17,1.29,1.29,0,0,0,.65-.17"/><path class="cls-2" d="M141,151.53a.39.39,0,0,1,.09.26V155a.39.39,0,0,1-.09.26.41.41,0,0,1-.27.1.36.36,0,0,1-.25-.1.36.36,0,0,1-.11-.26v-.08a1.58,1.58,0,0,1-.53.35,1.94,1.94,0,0,1-1.55-.09,1.44,1.44,0,0,1-.6-.62,2,2,0,0,1-.22-1v-1.74a.32.32,0,0,1,.1-.25.35.35,0,0,1,.26-.11.38.38,0,0,1,.36.36v1.74a1.11,1.11,0,0,0,.31.87,1.09,1.09,0,0,0,.81.29,1.19,1.19,0,0,0,.54-.12.86.86,0,0,0,.38-.32.76.76,0,0,0,.14-.46v-2a.36.36,0,0,1,.11-.26.36.36,0,0,1,.25-.1.41.41,0,0,1,.27.1"/><path class="cls-2" d="M107.34,96.35c-.35,0-.52-.24-.58-.65a24.16,24.16,0,0,1,.65-10.54,9.15,9.15,0,0,1,2.11-3.9,2.93,2.93,0,0,1,.47-.4c.35-.23.66,0,.68.53a1.08,1.08,0,0,1,0,.18q0,13.2,0,26.4c0,1.54-1.12,2.6-2.21,2.09a2.28,2.28,0,0,1-1.12-2.16V96.35Zm2.41-13.69c-1.78,1.62-3,8.74-2.11,12.44h2.11Zm-1.5,13.69v7.8c0,1.22,0,2.43,0,3.65a2,2,0,0,0,.24.89.55.55,0,0,0,.78.22,1,1,0,0,0,.48-1V96.61c0-.08,0-.16,0-.26Z"/><path class="cls-2" d="M80.81,82.75s0,0,.06-.07c.14-.22.32-.39.49-.19a1.08,1.08,0,0,1,.25.64c0,1.29,0,2.58,0,3.87,0,1.56.8,2.89,1.81,3s2.1-.81,2.34-2.4a6.55,6.55,0,0,0,0-.89c0-1.15,0-2.29,0-3.44a1.32,1.32,0,0,1,0-.5c.1-.17.25-.38.38-.37s.25.23.37.38,0,.16,0,.24c0,1.45,0,2.9,0,4.34a4.5,4.5,0,0,1-1.18,3,.92.92,0,0,0-.24.7q0,8.34,0,16.67a2.47,2.47,0,0,1-.86,2.16c-1,.7-2.12-.37-2.13-2,0-1.26,0-2.52,0-3.78q0-6.53,0-13.06a.87.87,0,0,0-.22-.67,4.57,4.57,0,0,1-1.15-2.56,1.69,1.69,0,0,0,0-.24Zm2.24,8.49v16.47a2.88,2.88,0,0,0,0,.59c.11.55.54.82.9.58a1.17,1.17,0,0,0,.4-1V91.59c0-.13,0-.26,0-.35Z"/><path class="cls-2" d="M83.32,84.12V81.5c0-.49.14-.73.4-.73s.43.26.43.76v5.28c0,.49-.16.76-.43.75s-.4-.24-.4-.73V84.12"/><path class="cls-2" d="M82.88,84.39v2.44c0,.49-.14.73-.4.73s-.43-.26-.43-.75V82c0-.48.17-.76.43-.75s.39.25.4.74v2.44"/><path class="cls-2" d="M85.39,84.41v2.44c0,.48-.15.72-.41.71s-.41-.26-.41-.69v-5c0-.43.17-.69.41-.69s.41.25.41.67v2.53"/><path class="cls-1" d="M110.21,95.51A13.68,13.68,0,1,1,96.54,81.84a13.68,13.68,0,0,1,13.67,13.67"/><path class="cls-2" d="M111.25,95.52A14.71,14.71,0,1,1,96.54,80.81a14.69,14.69,0,0,1,14.71,14.71m-1.21,0A13.5,13.5,0,1,0,96.55,109,13.49,13.49,0,0,0,110,95.52"/><path class="cls-2" d="M106.24,95.53a9.71,9.71,0,1,1-9.65-9.72,9.69,9.69,0,0,1,9.65,9.72m-1.19,0a8.51,8.51,0,1,0-8.5,8.5,8.53,8.53,0,0,0,8.5-8.5"/><path class="cls-2" d="M95,89.4h.14c.42,0,.62.14.63.46s-.21.49-.61.51a3.92,3.92,0,0,0-3.81,3.82c0,.37-.19.59-.48.59s-.48-.21-.48-.61A4.91,4.91,0,0,1,95,89.4"/></g></g></svg>