<svg xmlns="http://www.w3.org/2000/svg" viewBox="0 0 180 90"><path d="M65.4 43.38l-1.03-.26.07-.32c.9-3.94 1.88-7.91 2.83-11.75.47-1.92.94-3.8 1.37-5.6-.51-1.49-2.6-2.35-3.95-2.41-.88 0-.95.17-.95.22 0 .15.04.33.09.52.07.29.14.58.09.89-.15 1.16-.73 3.64-1.25 5.83-.15.65-.3 1.27-.43 1.83l-.3 1.2c-.68 2.79-1.33 5.42-2.25 8.8l-.07.26-.27-.02c-2.12-.12-4.69-.19-7.43-.19-1.89 0-3.84 0-5.76.06l-.46.01.12-.44c1.03-3.74 3.21-13.94 3.21-16.48 0-1.79-1.45-2.7-4.32-2.7h-.1c-.14-.01-.38-.02-.48.1-.1.11-.11.38-.03.74.09.36.04.75-.01 1.1-.02.19-.05.37-.05.53-.21 3.59-1.97 11.3-3.42 17.14l-.06.24-.25.01c-5.13.27-8.69.79-9.77 1.44-.86.51-1.51 3.44-1.04 4.68.07.17.18.39.35.44.13.04.29-.01.41-.08.24-.3 1.17-.89 8.57-1.69l.48-.05-.12.47c-1.08 4.2-2.16 8.19-2.95 11.1l-.45 1.63c-.36 1.25-.81 2.82-.81 4.01 0 1.87 2.45 2.64 3.76 2.64 1.03 0 1.03 0 1.03-1.03 0-2.5.91-5.78 1.64-8.42.23-.83.44-1.6.61-2.27.15-.66 1.42-5.93 2.18-8.34l.07-.22.23-.02c4.21-.34 9.11-.61 13.79-.75l.43-.01-.09.42c-1.08 4.98-2.41 11.88-2.85 15.42-.05.3.06.6.3.9.73.89 2.47 1.53 3.35 1.57.31 0 1.38-.04 1.38-.6 0-.12-.02-.26-.04-.4-.03-.24-.07-.52-.02-.83.4-4.89 1.64-10.98 2.8-16.28l.06-.28 3.07.2c.02-.1.06-.43-.06-.95-.15-.74-.61-1.7-1.22-2.01zm88.68 18.19c-.29-.25-.88-.18-1.4-.11-.45.06-.84.1-1.13-.03l-.14-.06-.05-.14c-.51-1.59-.76-3.63-.76-6.25 0-1.68.09-3.37.18-5 .05-1.01.11-1.96.13-2.82.06-2.03-2.03-3.82-3.56-4.32-2.18-.71-5.86 2.85-8.55 6.7l-1.2 1.71.6-2c.53-1.78 5.65-22.62 5.16-24.19-1.45-1.31-3.01-1.93-3.82-1.87-.58.03-.65.35-.7 1.12-.01.19-.02.36-.05.53-.11.61-.86 4.02-1.89 8.73-.38 1.74-.8 3.63-1.23 5.58l-.12.55-.43-.37c-.72-.63-1.4-1.07-1.92-1.26-.95-.41-2.67-.41-3.24-.41h-.48l.17-.45c.37-.99.5-1.53 1.59-6.14.08-1.23-1.52-2.62-2.91-2.92-.47-.1-1.08-.1-1.28.47l-.02.04c-.17.34-.22.44-2.77 8.88l-.07.22-4.48.38.24-.52c1.75-3.85 2.97-7.26 3.54-9.86.51-2.25-.41-4.27-2.44-5.41l-.81-.45c-1.81-.8-3.15-.54-4.67 1.07-3.21 3.65-7.48 17.03-7.88 27.43v.07l-.03.06c-1.52 3.14-3.93 6.95-5.72 7.34l-.26.06-.12-.23c-.24-.48-.35-1.16-.35-2.2 0-2.96 1.14-7.33 1.82-9.94.15-.59.28-1.08.36-1.43.06-.27-.03-.57-.28-.88-.63-.79-2-1.37-2.8-1.37-.29 0-1.16 0-1.31.31l-.18.36-.32-.25c-1.33-1.01-2.87-1.98-5.07-2.22-4.43.56-7.54 6.43-8.86 11.3l-.03.08c-1.49 2.55-4.51 6.91-8.07 7.41-1.5.21-2.84-.66-3.4-2.2l-.11-.31.31-.12c1.62-.61 9.55-6.33 9.59-11.69-.38-1.83-1.71-3.27-3.76-4.06-.6-.27-1.28-.41-1.99-.41-.81 0-1.57.17-2.34.53-4.22 1.89-6.31 6.86-6.82 10.54-.23 2.03-.25 5.8 2.31 8.14 1.52 1.47 3.69 2.27 6.1 2.27 2.47 0 4.86-.83 6.54-2.28.22-.18.45-.41.74-.7l.35-.36.2.47c.77 1.82 2.37 3 4.08 3 2.52 0 7.23-6.57 7.69-7.73l.65-1.62v1.74c0 1.27.85 3.63 1.96 4.79.88.88 2.44 1.45 3.98 1.45 1.7 0 3.2-.62 4.22-1.75.21-.22.58-.76 1-1.44l.39-.63.21.71c.61 2.03 1.52 3.42 2.72 4.15.89.54 1.89.82 2.87.82 1.71 0 3.43-.78 4.85-2.2.52-.57 1.21-1.54 1.93-2.75l.38-.63.22.71c.81 2.55 2.8 4.06 5.33 4.06 1.88 0 3.43-1.18 4.4-2.18l.38-.39.18.52c.47 1.39 2.9 2.49 4.19 2.47.16 0 .53-.04.58-.23.4-1.41 1.41-3.88 2.21-5.18 3.36-5.49 4.32-6.51 5.64-7.92.29-.31.61-.65.97-1.06l.59-.66v.88c0 7.94.44 12.63 2.74 14.7 1.02.92 2.36 1.46 3.56 1.46.81 0 1.53-.24 1.91-.65.22-.23.32-.5.3-.8.01-.38-.08-.63-.24-.76zm-81.94-8l.18-.78c.65-2.81 1.82-4.89 2.46-5.88l.14-.21c.99-1.45 2.13-2.95 3.09-3.13.26-.05.51 0 .72.14l.05.04c.49.49.32 1.93-.38 3.14-1.3 2.09-3.31 4.87-5.57 6.26l-.69.42zm25.2-7.52c-3.18 7.07-7.29 10.72-8.83 12.09l-.71.63.16-.94c.95-5.66 4.46-12.49 6.36-14.33.3-.26.64-.34.99-.25.92.24 1.74 1.69 2.04 2.55l.04.13-.05.12zm16.24-3.72c.86-5.38 3.88-14.86 5.4-16.9l.01-.01c.43-.52.81-.69 1.14-.5.7.39.37 2.22.12 3-1.23 4.55-4.59 12.24-6.05 14.65l-.89 1.47.27-1.71zm9.52-.72c-.52 1.68-1.07 4.1-1.49 6.65l-.02.07c-2.26 5.88-6.12 11.39-7.97 11.39h-.03l-.15-.01-.1-.11c-.79-.92-1.32-3.15-1.32-5.55 0-1.05.08-1.92.26-2.74l.02-.07.04-.06c1.7-2.25 4.15-6.45 6.25-10.68l.19-.38.33.26c.43.35 1.28.76 2.93.73l1.2.1-.14.4zm12.28-1.09c-.49 2.23-.98 4.5-1.45 6.65l-.02.05c-2.29 5.72-5.79 10.87-7.81 11.48l-.06.02h-.06a.526.526 0 01-.41-.24c-.95-1.33 1.16-11.25 2.96-17.87l.06-.23 1.82-.1c2.78-.15 2.78-.15 3.46-.11l.09.01c.39 0 .74-.02 1.03-.07l.48-.07-.09.48zM74.66 76.64c2.26 0 3.71.9 3.71 2.74 0 1.32-.79 2.09-1.7 2.38.97.28 2.14 1.02 2.14 2.71 0 2.46-2.4 3-4.12 3h-4.61V76.64h4.58zm-.19 1.53h-2.63v2.96l2.88.02c1.02 0 1.86-.43 1.86-1.49 0-1.09-.81-1.49-2.11-1.49zm.3 4.45h-2.92v3.3h2.68c1.21 0 2.49-.14 2.49-1.64-.01-1.44-1.28-1.66-2.25-1.66zm10.65 4.85L90 76.64h1.93l4.57 10.83h-1.86l-.96-2.34h-5.43l-.96 2.34h-1.87zm3.43-3.89h4.21l-1.9-4.63c-.06-.17-.12-.34-.2-.6-.08.26-.14.43-.2.6l-1.91 4.63zm15.25 3.89V76.64h4.33c2.03 0 4.16.8 4.16 3.39 0 1.93-1.21 2.86-2.63 3.2l3.47 4.24h-2.12l-3.25-4.05h-2.2v4.05h-1.76zm1.76-5.62h2.65c1.16 0 2.29-.42 2.29-1.8 0-1.39-1.13-1.81-2.29-1.81h-2.65v3.61zM77.91 2.53v1.62h-3.57v9.21h-1.76v-9.2h-3.59V2.53h8.92zm16.96 0v10.83h-1.76V8.75H87.4v4.61h-1.76V2.53h1.76v4.6h5.71v-4.6h1.76zm16.28 0v1.61h-5.7V7.1h5.23v1.61h-5.23v3.05h5.79v1.61h-7.55V2.53h7.46z" fill="#231f20"/><path d="M63.04 82.03H7.09V7.93h55.95V6.39H5.54v77.18h57.5zm53.98-75.64v1.54h55.89v74.1h-55.89v1.54h57.44V6.39z" fill="#ba9e61"/><path d="M22.89 26.14c.27.11.54.22.82.33 1.49.62 3.03 1.03 4.6 1.37 1.75.38 3.4 1.04 4.88 2.07 1.94 1.35 3.18 3.16 3.64 5.5.01.04.02.07.04.14.53-.25.91-.61 1.09-1.16.17-.53.18-1.08.12-1.63-.28-2.89-1.85-4.87-4.39-6.14-1.83-.92-3.79-1.39-5.8-1.64-1.45-.18-2.91-.29-4.36-.48-1.65-.21-3.08-.87-4.15-2.19-.01-.02-.04-.03-.12-.02.25 1.02.46 2.04.75 3.04.74 2.56 1.82 4.97 3.41 7.12 2.11 2.86 4.83 4.79 8.34 5.52.9.19 1.8.34 2.72.08.48-.14 1.16-.68 1.15-.77-.1-1.55-.64-3.04-1.42-4.4-.51-.88-1.03-1.67-1.81-2.28-1.11-.87-2.38-1.43-3.72-1.86-1.06-.34-1.91-.66-2.94-1.09-.95-.39-1.85-.92-2.77-1.39a.55.55 0 01-.09-.07c0-.03 0-.04.01-.05z" fill="#9dd1bb"/></svg>