<?xml version="1.0" standalone="no"?>
<!DOCTYPE svg PUBLIC "-//W3C//DTD SVG 20010904//EN"
 "http://www.w3.org/TR/2001/REC-SVG-20010904/DTD/svg10.dtd">
<svg version="1.0" xmlns="http://www.w3.org/2000/svg"
 width="512.000000pt" height="512.000000pt" viewBox="0 0 512.000000 512.000000"
 preserveAspectRatio="xMidYMid meet">
<metadata>
Created by potrace 1.14, written by Peter Selinger 2001-2017
</metadata>
<g transform="translate(0.000000,512.000000) scale(0.100000,-0.100000)"
fill="#000000" stroke="none">
<path d="M367 3413 c-4 -3 -7 -366 -7 -805 l0 -798 240 0 240 0 0 570 0 570
118 0 c139 0 217 -13 289 -47 102 -48 153 -140 153 -278 0 -227 -141 -344
-412 -345 l-78 0 0 -234 0 -235 57 -7 c77 -9 221 2 320 26 305 73 532 309 590
613 24 126 14 337 -20 442 -81 247 -276 423 -546 491 -61 16 -149 28 -241 34
-166 11 -693 13 -703 3z"/>
<path d="M2522 3000 c-253 -46 -452 -236 -497 -476 -19 -95 -19 -160 0 -247
38 -182 164 -343 332 -426 173 -86 400 -80 572 16 135 75 257 231 295 379 21
80 21 228 0 308 -50 194 -223 374 -414 430 -68 20 -217 28 -288 16z m196 -457
c73 -54 95 -155 51 -232 -68 -120 -233 -113 -290 13 -38 83 -11 175 64 221 35
21 51 25 95 22 32 -2 63 -12 80 -24z"/>
<path d="M3664 2600 c-148 -31 -271 -144 -309 -284 -27 -98 -18 -206 23 -289
42 -84 129 -167 209 -197 76 -30 190 -37 266 -17 59 16 147 61 147 77 0 11
-150 190 -158 190 -4 -1 -18 -7 -32 -15 -58 -33 -128 -6 -156 61 -19 46 -18
138 3 181 18 39 65 73 101 73 30 0 78 -25 86 -45 13 -35 7 -40 -44 -37 -80 6
-96 -2 -104 -47 -3 -21 -3 -53 0 -70 l7 -31 225 0 225 0 -5 84 c-4 69 -10 96
-36 149 -42 84 -129 167 -208 196 -63 24 -179 34 -240 21z"/>
<path d="M4521 2599 c-102 -20 -198 -110 -231 -217 -18 -57 -20 -93 -20 -318
l0 -254 144 0 145 0 3 219 c3 218 3 220 28 246 22 23 30 26 68 21 l42 -6 0
154 0 154 -31 6 c-40 8 -92 6 -148 -5z"/>
</g>
</svg>
