<?xml version="1.0" standalone="no"?>
<!DOCTYPE svg PUBLIC "-//W3C//DTD SVG 20010904//EN"
 "http://www.w3.org/TR/2001/REC-SVG-20010904/DTD/svg10.dtd">
<svg version="1.0" xmlns="http://www.w3.org/2000/svg"
 width="750.000000pt" height="750.000000pt" viewBox="0 0 750.000000 750.000000"
 preserveAspectRatio="xMidYMid meet">
<metadata>
Created by potrace 1.14, written by Peter Selinger 2001-2017
</metadata>
<g transform="translate(0.000000,750.000000) scale(0.100000,-0.100000)"
fill="#000000" stroke="none">
<path d="M1230 7470 c0 -36 -16 -45 -90 -54 -181 -22 -194 -26 -218 -62 -25
-38 -76 -74 -105 -74 -33 0 -91 -33 -122 -68 -16 -19 -49 -43 -73 -54 -24 -12
-51 -33 -60 -47 -22 -34 -32 -43 -67 -61 -16 -9 -36 -29 -45 -45 -19 -36 -37
-57 -63 -70 -11 -5 -30 -29 -42 -52 -11 -24 -42 -63 -67 -87 -34 -32 -49 -55
-53 -83 -12 -71 -43 -133 -67 -133 -22 0 -47 -39 -53 -85 -4 -27 -9 -57 -10
-65 -2 -8 -6 -40 -10 -70 -10 -83 -25 -110 -57 -110 l-28 0 0 -326 0 -326 28
5 c25 5 30 2 40 -26 13 -38 42 -201 42 -238 0 -17 11 -35 35 -54 37 -29 75
-94 75 -128 0 -21 30 -77 41 -77 18 0 69 -64 69 -85 0 -13 7 -30 15 -39 8 -8
15 -18 15 -23 0 -5 10 -13 22 -18 12 -6 26 -19 32 -30 17 -30 58 -69 88 -82
16 -7 28 -20 28 -28 0 -22 29 -49 70 -65 41 -15 70 -38 70 -54 0 -14 52 -46
73 -46 19 0 80 -31 89 -46 30 -46 47 -56 143 -79 106 -26 159 -45 151 -52 -13
-13 35 -41 89 -53 84 -18 516 -25 630 -10 178 22 178 22 188 57 4 14 70 43 97
43 46 0 145 31 154 48 25 46 72 79 120 86 49 8 95 32 96 51 0 12 81 65 99 65
6 0 27 22 47 50 20 27 54 62 77 77 22 16 52 48 65 73 14 25 29 47 33 48 5 2 9
10 9 18 0 8 6 14 13 14 18 0 40 37 59 102 16 58 27 74 63 94 28 15 55 76 62
138 6 53 23 86 59 121 16 14 26 46 39 115 14 81 16 142 12 400 -5 331 -15 405
-54 423 -24 10 -43 57 -68 165 -14 63 -41 112 -61 112 -17 0 -64 78 -64 108 0
20 -53 82 -71 82 -5 0 -9 6 -9 13 0 26 -40 85 -104 150 -36 38 -66 73 -66 78
0 5 -7 9 -15 9 -8 0 -15 7 -15 15 0 8 -7 15 -15 15 -8 0 -15 4 -15 10 0 5 -12
12 -27 16 -57 13 -104 38 -109 59 -6 22 -51 55 -77 55 -25 0 -117 52 -117 66
0 8 -7 14 -15 14 -8 0 -15 4 -15 9 0 13 -18 18 -143 36 -124 18 -147 28 -147
67 l0 28 -350 0 -350 0 0 -30z"/>
<path d="M5247 7494 c-3 -3 -4 -16 -1 -28 3 -19 -5 -27 -49 -49 -49 -25 -61
-27 -183 -27 -137 0 -154 -5 -154 -45 0 -32 -40 -64 -96 -75 -27 -6 -62 -13
-78 -16 -17 -4 -39 -22 -55 -44 -23 -33 -49 -52 -101 -74 -23 -10 -56 -30 -75
-46 -22 -19 -55 -23 -55 -7 -1 8 -5 7 -13 -4 -7 -9 -29 -24 -49 -34 -21 -9
-38 -24 -38 -31 0 -8 -4 -14 -10 -14 -5 0 -10 -10 -10 -23 0 -29 -28 -52 -71
-61 -24 -4 -41 -17 -58 -41 -13 -19 -27 -35 -32 -35 -5 0 -9 -6 -9 -14 0 -8
-6 -16 -14 -19 -7 -3 -16 -20 -19 -39 -9 -55 -55 -144 -92 -180 -35 -32 -56
-67 -70 -115 -3 -13 -11 -23 -16 -23 -5 0 -9 -6 -9 -14 0 -7 -15 -21 -34 -30
-42 -20 -44 -26 -47 -124 -2 -81 -20 -155 -45 -179 -8 -8 -14 -19 -14 -25 0
-6 -11 -8 -24 -6 -30 6 -34 -2 -41 -85 -3 -34 -8 -91 -12 -127 -3 -36 -8 -473
-10 -972 -3 -693 -7 -909 -17 -917 -6 -5 -25 -13 -41 -18 -17 -4 -464 -10
-995 -14 -531 -4 -990 -11 -1020 -15 -58 -10 -76 -33 -32 -44 19 -4 8 -10 -50
-29 -40 -13 -81 -27 -90 -32 -10 -5 -59 -9 -110 -9 -100 0 -122 -7 -116 -36 2
-10 -4 -26 -13 -35 -27 -27 -110 -62 -160 -67 -27 -2 -49 -9 -49 -13 0 -18
-53 -69 -93 -89 -39 -21 -67 -43 -67 -54 0 -10 -39 -46 -50 -46 -6 0 -10 -4
-10 -10 0 -5 -5 -10 -11 -10 -6 0 -40 -27 -76 -60 -35 -33 -68 -60 -73 -60 -6
0 -10 -5 -10 -11 0 -15 -85 -100 -93 -93 -3 3 -17 -15 -32 -40 -15 -25 -30
-46 -34 -46 -21 0 -52 -42 -70 -95 -24 -67 -71 -121 -90 -102 -8 8 -11 -1 -11
-37 0 -64 -28 -144 -63 -180 -15 -16 -31 -26 -34 -22 -3 3 -14 -4 -25 -16 -16
-19 -18 -36 -16 -133 2 -86 -1 -123 -16 -170 -31 -99 -36 -106 -68 -101 l-28
4 0 -329 0 -329 26 0 c30 0 44 -13 63 -60 22 -57 32 -140 25 -217 -5 -62 -4
-74 10 -79 9 -3 16 -16 17 -28 0 -11 3 -15 6 -8 6 16 69 -65 79 -102 3 -14 10
-26 15 -26 5 0 9 -21 9 -47 0 -35 -3 -44 -10 -33 -8 12 -10 9 -10 -13 0 -16 4
-26 10 -22 6 3 10 -1 10 -9 0 -9 8 -16 18 -16 27 -1 55 -31 82 -87 16 -34 35
-58 56 -69 18 -10 41 -34 53 -53 11 -20 43 -56 70 -81 28 -24 51 -48 51 -52 0
-10 37 -48 47 -48 4 0 30 -24 57 -53 28 -29 68 -65 89 -80 20 -16 37 -35 37
-43 0 -7 5 -14 10 -14 6 0 10 -6 10 -13 0 -11 80 -52 95 -48 3 1 18 -11 33
-27 30 -32 72 -52 106 -52 28 0 98 -33 116 -56 8 -9 14 -30 15 -48 l0 -31 137
-2 c129 -1 141 -3 195 -30 52 -26 58 -32 55 -56 l-3 -27 2185 0 2186 0 0 28
c0 22 9 33 48 56 47 28 48 29 165 23 65 -3 129 -2 143 3 25 10 32 35 12 43 -9
3 -3 15 17 35 31 33 118 62 182 62 21 0 33 5 33 13 0 25 44 66 88 81 23 8 45
14 49 13 3 -1 7 8 8 19 3 43 86 96 97 62 5 -13 98 27 98 42 0 12 60 74 92 94
15 10 25 22 22 27 -3 5 2 9 10 9 9 0 16 6 16 14 0 8 3 16 8 18 4 2 17 17 29
35 22 31 22 32 3 38 -11 4 -20 12 -20 19 0 17 45 58 53 49 4 -3 7 -1 7 6 0 8
7 11 15 7 10 -4 15 2 17 17 4 60 28 105 68 125 27 13 36 24 38 47 12 112 64
212 96 186 9 -8 18 -6 32 3 17 13 19 26 17 143 -2 115 0 133 20 173 20 40 25
45 55 43 l32 -2 0 2211 0 2211 -29 -6 c-28 -6 -31 -3 -55 48 -24 48 -26 66
-26 177 0 127 -9 163 -32 140 -17 -17 -24 -15 -53 16 -37 39 -55 87 -55 148 0
30 -5 54 -10 54 -6 0 -31 20 -55 45 -36 36 -45 51 -45 80 0 19 -5 35 -11 35
-6 0 -17 7 -25 15 -8 8 -22 19 -31 24 -9 5 -19 27 -22 52 -5 39 -9 44 -32 45
-14 1 -38 10 -53 20 -21 15 -25 25 -22 46 7 36 -17 60 -51 52 -20 -5 -31 0
-55 26 -21 24 -26 35 -17 41 9 5 8 11 -4 23 -9 9 -20 16 -24 15 -4 -1 -18 -1
-30 0 -26 1 -97 68 -80 74 18 7 -22 35 -62 42 -19 4 -47 20 -64 36 -16 17 -35
28 -43 25 -7 -3 -18 2 -24 10 -7 8 -30 14 -50 14 -63 0 -158 65 -145 99 13 34
-14 41 -156 41 -76 0 -140 4 -143 8 -3 5 -31 17 -63 27 -56 18 -59 20 -55 47
l4 28 -314 0 c-173 0 -317 -3 -321 -6z m628 -1064 c16 -6 33 -6 43 -1 19 10
52 -8 52 -28 0 -6 7 -11 15 -11 8 0 15 -4 15 -9 0 -5 6 -8 13 -8 30 3 97 -25
119 -49 12 -15 33 -36 46 -48 90 -82 182 -182 182 -197 0 -10 5 -21 10 -24 6
-4 8 -11 5 -16 -4 -5 -1 -9 5 -9 6 0 10 -8 8 -17 -2 -10 3 -17 10 -16 6 2 12
-2 12 -9 0 -6 6 -19 13 -27 9 -10 19 -73 28 -166 11 -123 14 -496 13 -2060 0
-1050 -5 -1978 -10 -2061 l-9 -151 -37 -37 c-20 -20 -40 -47 -43 -59 -12 -42
-40 -91 -68 -119 -15 -15 -30 -28 -32 -28 -7 0 -45 -39 -45 -45 0 -11 -66 -65
-87 -71 -13 -3 -23 -10 -23 -15 0 -5 -16 -9 -35 -9 -28 0 -43 -8 -75 -41 l-40
-42 -113 -4 c-61 -2 -137 -8 -167 -13 -31 -5 -873 -8 -1930 -6 -2058 2 -2184
5 -2227 52 -12 13 -27 24 -33 24 -14 0 -13 17 3 23 6 3 -1 6 -17 6 -32 1 -116
50 -116 67 0 7 -10 14 -23 18 -30 7 -78 54 -101 98 -10 21 -28 39 -42 42 -14
4 -26 16 -30 31 -3 14 -10 25 -15 25 -5 0 -9 24 -9 54 0 35 -5 60 -15 70 -8 8
-15 19 -15 25 0 6 -7 11 -15 11 -9 0 -15 9 -15 23 0 13 -6 29 -12 36 -18 17
-18 588 -1 646 7 22 15 53 18 68 3 15 10 25 15 22 6 -3 10 -1 10 4 0 6 7 11
15 11 10 0 15 11 16 30 3 64 27 125 55 141 13 7 26 20 30 31 3 10 10 18 15 18
5 0 9 5 9 10 0 20 68 82 87 79 21 -3 83 27 83 41 0 6 7 10 16 10 9 0 26 8 38
18 18 13 21 21 13 33 -21 33 60 88 98 67 18 -11 85 -7 220 12 42 6 598 9 1413
10 862 0 1342 3 1342 10 0 6 -473 10 -1320 10 -966 0 -1342 3 -1398 12 l-77
12 97 12 c71 10 439 14 1417 16 l1320 3 23 25 23 25 5 1305 c3 718 1 1313 -3
1323 -15 32 -9 121 10 163 19 42 19 42 36 21 9 -12 17 -26 18 -32 1 -22 39
111 39 138 0 15 7 39 16 52 8 13 14 33 12 44 -2 11 1 20 6 20 5 -1 13 5 17 13
7 11 11 10 19 -2 9 -14 11 -13 14 10 0 6 8 15 16 20 13 9 13 10 0 10 -13 0
-13 1 0 10 12 8 12 10 -3 16 -52 19 31 124 99 124 8 0 13 4 10 9 -10 15 48 67
94 84 25 9 62 17 82 17 20 0 43 7 52 15 8 8 19 15 25 15 6 0 11 6 11 13 0 21
57 34 156 36 49 1 91 5 94 8 8 9 377 -6 405 -17z m642 -730 c9 -39 5 -170 -5
-183 -17 -20 -17 -3667 -1 -3667 8 0 7 -5 -1 -15 -8 -9 -8 -15 -2 -15 6 0 10
-9 9 -20 -1 -11 -4 -20 -8 -20 -4 0 -10 -8 -12 -18 -3 -9 -5 888 -5 1993 -1
1920 1 2045 25 1945z m-862 -4709 c38 -7 36 -7 -33 -14 -82 -8 -3633 -7 -3727
1 -47 4 -55 7 -35 13 33 9 3743 10 3795 0z m1365 -352 c0 -15 -47 -32 -65 -25
-15 5 -14 8 6 25 22 18 59 18 59 0z m-126 -130 c-21 -23 -64 -26 -64 -4 0 8 7
15 15 15 9 0 18 7 21 15 5 11 10 12 26 4 19 -10 19 -11 2 -30z"/>
<path d="M4440 7130 c0 -5 4 -10 9 -10 6 0 13 5 16 10 3 6 -1 10 -9 10 -9 0
-16 -4 -16 -10z"/>
</g>
</svg>
